<?xml version="1.0" encoding="utf-8"?>
<svg version="1.1" xmlns="http://www.w3.org/2000/svg" xmlns:xlink="http://www.w3.org/1999/xlink" height="62" width="280">
  <defs>
    <path id="path-1" opacity="1" fill-rule="evenodd" d="M16.24054718017578,20.744606018066406 C15.253120422363281,20.92646026611328 14.499557495117188,21.433059692382812 14.005844116210938,22.225433349609375 C13.512130737304688,23.030799865722656 13.265274047851562,24.134925842285156 13.265274047851562,25.563796997070312 L13.265274047851562,49.33500671386719 C13.330238342285156,50.41316223144531 13.629066467285156,51.283470153808594 14.135772705078125,51.91996765136719 C14.655464172363281,52.55646514892578 15.344062805175781,52.90718078613281 16.24054718017578,52.98512268066406 L16.24054718017578,56.297508239746094 C11.42034912109375,56.18060302734375 7.6525421142578125,54.46595764160156 4.9501190185546875,51.14057922363281 C2.2476882934570312,47.802223205566406 0.88348388671875,43.26880645751953 0.88348388671875,37.51435089111328 C0.88348388671875,34.92939758300781 1.1693191528320312,32.539283752441406 1.7539749145507812,30.344017028808594 C2.3386383056640625,28.135765075683594 3.1831436157226562,26.17431640625 4.274513244628906,24.459671020507812 C5.1969757080078125,23.08275604248047 6.314323425292969,21.848731994628906 7.626556396484375,20.783573150634766 C8.938796997070312,19.718414306640625 10.290008544921875,18.900062561035156 11.667205810546875,18.341503143310547 C12.3038330078125,18.081710815429688 12.953460693359375,17.87387466430664 13.603080749511719,17.730987548828125 C14.252700805664062,17.58810043334961 14.889328002929688,17.510162353515625 15.486984252929688,17.510162353515625 L16.227554321289062,17.458202362060547 L16.227554321289062,20.744606018066406 L16.24054718017578,20.744606018066406 L16.24054718017578,20.744606018066406ZM18.371307373046875,20.783573150634766 L18.371307373046875,17.497169494628906 C18.43627166748047,17.53614044189453 18.52721405029297,17.562118530273438 18.60517120361328,17.57510757446289 C18.696121215820312,17.588096618652344 18.774070739746094,17.601089477539062 18.839035034179688,17.601089477539062 C18.981948852539062,17.640056610107422 19.12487030029297,17.666038513183594 19.29376983642578,17.679027557373047 C19.449676513671875,17.6920166015625 19.6055908203125,17.73098373413086 19.748504638671875,17.75696563720703 C20.138275146484375,17.873870849609375 20.58002471923828,18.003768920898438 21.07373046875,18.172637939453125 C21.56744384765625,18.341503143310547 22.295021057128906,18.614288330078125 23.25646209716797,18.990989685058594 C23.75017547607422,19.17284393310547 24.126953125,19.30274200439453 24.373809814453125,19.380680084228516 C24.62066650390625,19.4586181640625 24.82855224609375,19.497589111328125 25.01044464111328,19.497589111328125 L25.21832275390625,19.497589111328125 C25.40021514892578,19.4586181640625 25.569114685058594,19.380680084228516 25.751014709472656,19.25078582763672 C25.932907104492188,19.120887756347656 26.049835205078125,18.965011596679688 26.127792358398438,18.770164489746094 L26.452606201171875,18.042739868164062 C26.556541442871094,17.899852752685547 26.712448120117188,17.75696563720703 26.933319091796875,17.653045654296875 C27.141204833984375,17.53614044189453 27.37506866455078,17.484180450439453 27.621925354003906,17.484180450439453 C28.115631103515625,17.484180450439453 28.47942352294922,17.640056610107422 28.713287353515625,17.938819885253906 C28.94715118408203,18.23758316040039 29.0640869140625,18.666244506835938 29.0640869140625,19.224803924560547 L29.0640869140625,30.551849365234375 C29.0640869140625,31.227317810058594 28.934158325195312,31.746910095214844 28.687301635742188,32.12361145019531 C28.440444946289062,32.50031280517578 28.06366729736328,32.682167053222656 27.56995391845703,32.682167053222656 C27.18017578125,32.682167053222656 26.855369567871094,32.539283752441406 26.58252716064453,32.22753143310547 C26.322677612304688,31.92876434326172 26.11479949951172,31.47412109375 25.971885681152344,30.87659454345703 C25.23131561279297,27.888954162597656 24.204910278320312,25.524826049804688 22.892677307128906,23.784202575683594 C21.58043670654297,22.0435791015625 20.073318481445312,21.04336929321289 18.371307373046875,20.783573150634766 L18.371307373046875,20.783573150634766ZM23.178504943847656,50.971717834472656 C21.749343872070312,52.20574188232422 20.138275146484375,52.855224609375 18.371307373046875,52.93316650390625 L18.358314514160156,52.93316650390625 L18.358314514160156,56.297508239746094 C19.566612243652344,56.25853729248047 20.657974243164062,56.063690185546875 21.632408142089844,55.71296691894531 C22.606842041015625,55.34925842285156 23.568283081054688,54.7777099609375 24.52972412109375,53.998321533203125 C24.672637939453125,53.88141632080078 24.8155517578125,53.777496337890625 24.958473205566406,53.66059112548828 C25.10138702392578,53.556671142578125 25.244308471679688,53.42677307128906 25.387222290039062,53.270896911621094 C25.841957092285156,52.829246520996094 26.28369903564453,52.33563995361328 26.68646240234375,51.81604766845703 C27.0892333984375,51.29646301269531 27.453018188476562,50.750892639160156 27.77783203125,50.19232940673828 C28.206581115722656,49.516868591308594 28.531394958496094,48.854393005371094 28.7652587890625,48.20490264892578 C28.999122619628906,47.555419921875 29.116050720214844,46.9578857421875 29.116050720214844,46.43830108642578 C29.116050720214844,45.94468688964844 28.97313690185547,45.54200744628906 28.687301635742188,45.230255126953125 C28.401466369628906,44.90550994873047 28.06366729736328,44.7496337890625 27.67388916015625,44.7496337890625 C27.28411865234375,44.7496337890625 26.97229766845703,44.866539001464844 26.738433837890625,45.11334991455078 C26.50457000732422,45.36015319824219 26.30968475341797,45.77582550048828 26.127792358398438,46.37335205078125 C25.59510040283203,48.20490264892578 24.60767364501953,49.737693786621094 23.178504943847656,50.971717834472656 L23.178504943847656,50.971717834472656Z"/>
    <path id="path-2" opacity="1" fill-rule="evenodd" d="M48.77360534667969,17.43222427368164 L48.77360534667969,20.458831787109375 C49.65708923339844,20.75759506225586 50.280731201171875,21.186256408691406 50.63153076171875,21.770793914794922 C50.98231506347656,22.355331420898438 51.164215087890625,23.16069793701172 51.164215087890625,24.212867736816406 L51.164215087890625,48.763458251953125 C51.164215087890625,50.15336608886719 50.98231506347656,51.192543029785156 50.63153076171875,51.906982421875 C50.280731201171875,52.62141418457031 49.65708923339844,53.0760498046875 48.77360534667969,53.257911682128906 L48.77360534667969,56.284515380859375 C53.30796813964844,55.90782165527344 56.89387512207031,53.97235107421875 59.531341552734375,50.47810363769531 C62.16880798339844,46.98387145996094 63.49403381347656,42.47643280029297 63.49403381347656,36.94280242919922 C63.49403381347656,31.383201599121094 62.142822265625,26.797821044921875 59.45338439941406,23.21265411376953 C56.763946533203125,19.614498138427734 53.20402526855469,17.692020416259766 48.77360534667969,17.43222427368164 L48.77360534667969,17.43222427368164ZM44.25224304199219,24.277816772460938 C44.25224304199219,23.199668884277344 44.43412780761719,22.368324279785156 44.78492736816406,21.78378677368164 C45.13572692871094,21.199249267578125 45.759368896484375,20.744606018066406 46.642852783203125,20.406875610351562 L46.642852783203125,17.497173309326172 C42.25140380859375,17.717998504638672 38.7044677734375,19.627490997314453 35.989051818847656,23.21265411376953 C33.27362823486328,26.797821044921875 31.92241668701172,31.370208740234375 31.92241668701172,36.94280242919922 C31.92241668701172,42.47643280029297 33.247642517089844,46.996856689453125 35.911094665527344,50.49109649658203 C38.561553955078125,53.98533630371094 42.1474609375,55.920806884765625 46.642852783203125,56.297508239746094 L46.642852783203125,53.32286071777344 C45.759368896484375,53.050079345703125 45.13572692871094,52.608428955078125 44.78492736816406,51.971923828125 C44.43412780761719,51.33543395996094 44.25224304199219,50.25727844238281 44.25224304199219,48.72449493408203 L44.25224304199219,24.277816772460938 L44.25224304199219,24.277816772460938Z"/>
    <path id="path-3" opacity="1" fill-rule="evenodd" d="M102.13352966308594,18.172637939453125 L89.8037109375,18.172637939453125 L89.8037109375,50.4261474609375 C89.8037109375,51.10160827636719 89.73875427246094,51.569244384765625 89.59584045410156,51.82904052734375 C89.45291137695312,52.088836669921875 89.07614135742188,52.32264709472656 88.47848510742188,52.50450134277344 C88.41352844238281,52.530487060546875 88.32257080078125,52.5694580078125 88.21864318847656,52.58244323730469 C88.10169982910156,52.595428466796875 87.98477172851562,52.62141418457031 87.84185791015625,52.66038513183594 C87.45208740234375,52.738319396972656 87.1402587890625,52.894195556640625 86.93238830566406,53.14100646972656 C86.71151733398438,53.38780212402344 86.60757446289062,53.68656921386719 86.60757446289062,54.06327819824219 C86.60757446289062,54.582862854003906 86.78947448730469,54.959564208984375 87.16624450683594,55.20636749267578 C87.54302978515625,55.45317077636719 88.11470031738281,55.57008361816406 88.89424133300781,55.57008361816406 L102.13352966308594,55.57008361816406 C102.77017211914062,55.57008361816406 103.23789978027344,55.45317077636719 103.56269836425781,55.20636749267578 C103.88751220703125,54.959564208984375 104.04342651367188,54.595855712890625 104.04342651367188,54.115234375 C104.04342651367188,53.777496337890625 103.96546936035156,53.491729736328125 103.80955505371094,53.24491882324219 C103.65365600585938,52.99811553955078 103.393798828125,52.829246520996094 103.04299926757812,52.71234130859375 C102.90008544921875,52.673370361328125 102.75717163085938,52.62141418457031 102.6142578125,52.5694580078125 C102.47134399414062,52.50450134277344 102.34141540527344,52.46553039550781 102.23747253417969,52.42656707763672 C101.84770202636719,52.24470520019531 101.61384582519531,52.03687286376953 101.52288818359375,51.81604766845703 C101.43194580078125,51.59522247314453 101.39297485351562,51.17955017089844 101.39297485351562,50.58202362060547 L101.39297485351562,23.22564697265625 C101.39297485351562,22.654094696044922 101.43194580078125,22.264404296875 101.52288818359375,22.0435791015625 C101.61384582519531,21.82275390625 101.84770202636719,21.614917755126953 102.23747253417969,21.433059692382812 C102.35440063476562,21.394092559814453 102.47134399414062,21.342132568359375 102.6142578125,21.290172576904297 C102.75717163085938,21.22522735595703 102.90008544921875,21.186256408691406 103.04299926757812,21.14728546142578 C103.393798828125,21.030380249023438 103.65365600585938,20.86151123046875 103.80955505371094,20.614707946777344 C103.96546936035156,20.367904663085938 104.04342651367188,20.082130432128906 104.04342651367188,19.744396209716797 C104.04342651367188,19.224807739257812 103.88751220703125,18.848102569580078 103.56269836425781,18.627277374267578 C103.25088500976562,18.393463134765625 102.77017211914062,18.25057601928711 102.13352966308594,18.172637939453125 L102.13352966308594,18.172637939453125ZM85.43826293945312,33.52650451660156 L87.67295837402344,25.226058959960938 L87.67295837402344,34.305885314941406 L81.67045593261719,55.557090759277344 L80.34523010253906,55.557090759277344 L70.25010681152344,24.04399871826172 C70.21112060546875,23.927085876464844 70.17214965820312,23.8101806640625 70.12017822265625,23.680282592773438 C70.06820678710938,23.550384521484375 70.0162353515625,23.407501220703125 69.99024963378906,23.264610290527344 C69.74339294433594,22.667083740234375 69.47055053710938,22.238422393798828 69.19770812988281,21.97863006591797 C68.91188049316406,21.718833923339844 68.52210998535156,21.52398681640625 68.02839660644531,21.42007064819336 C67.45672607421875,21.30316162109375 67.04096984863281,21.108318328857422 66.75514221191406,20.835533142089844 C66.46929931640625,20.549758911132812 66.32638549804688,20.186046600341797 66.32638549804688,19.744396209716797 C66.32638549804688,19.263774871826172 66.49528503417969,18.887073516845703 66.83308410644531,18.627277374267578 C67.1708984375,18.36748504638672 67.62562561035156,18.237586975097656 68.18431091308594,18.237586975097656 L80.35821533203125,18.185626983642578 L85.43826293945312,33.52650451660156 L85.43826293945312,33.52650451660156ZM72.95252990722656,39.0731201171875 L72.95252990722656,47.30860900878906 C72.95252990722656,48.58160400390625 73.10844421386719,49.59480285644531 73.43325805664062,50.33522033691406 C73.75807189941406,51.088623046875 74.2647705078125,51.69914245605469 74.97935485839844,52.17976379394531 L75.9407958984375,52.738319396972656 C76.29159545898438,52.99810791015625 76.55143737792969,53.24491882324219 76.70735168457031,53.46574401855469 C76.86325073242188,53.68656921386719 76.94120788574219,53.94636535644531 76.94120788574219,54.24512481689453 C76.94120788574219,54.69976806640625 76.77230834960938,55.024513244628906 76.43450927734375,55.23234558105469 C76.09671020507812,55.440185546875 75.61598205566406,55.544097900390625 74.97935485839844,55.544097900390625 L68.49612426757812,55.544097900390625 C67.8594970703125,55.544097900390625 67.36578369140625,55.440185546875 67.04096984863281,55.23234558105469 C66.70317077636719,55.024513244628906 66.53427124023438,54.68677520751953 66.53427124023438,54.19316864013672 C66.53427124023438,54.011314392089844 66.56025695800781,53.842445373535156 66.61222839355469,53.712547302246094 C66.66419982910156,53.58264923095703 66.76814270019531,53.46574401855469 66.89805603027344,53.34883117675781 C66.93704223632812,53.30986785888672 66.989013671875,53.270896911621094 67.0799560546875,53.20594787597656 C67.1708984375,53.15399169921875 67.2618408203125,53.08904266357422 67.36578369140625,53.01110076904297 C68.35321044921875,52.452545166015625 69.08079528808594,51.69914245605469 69.54852294921875,50.763877868652344 C70.00325012207031,49.82861328125 70.23712158203125,48.685516357421875 70.23712158203125,47.34757995605469 L70.23712158203125,30.785667419433594 L72.95252990722656,39.0731201171875 L72.95252990722656,39.0731201171875Z"/>
    <path id="path-4" opacity="1" fill-rule="evenodd" d="M171.57809448242188,18.172637939453125 L171.14935302734375,18.172637939453125 L171.14935302734375,21.134296417236328 C172.2147216796875,21.290172576904297 172.96829223632812,21.66687774658203 173.4100341796875,22.290382385253906 C173.85177612304688,22.913890838623047 174.07266235351562,23.862144470214844 174.07266235351562,25.1351318359375 L174.07266235351562,33.96815490722656 C174.07266235351562,35.39702606201172 173.86477661132812,36.41022491455078 173.46200561523438,37.00775146484375 C173.05923461914062,37.61827087402344 172.27969360351562,38.04692840576172 171.14935302734375,38.306724548339844 L171.14935302734375,41.333335876464844 C172.17575073242188,41.333335876464844 173.15017700195312,41.29436492919922 174.07266235351562,41.2164306640625 C174.9951171875,41.13848876953125 175.83963012695312,41.034568786621094 176.61917114257812,40.878692626953125 C179.34759521484375,40.359100341796875 181.4913330078125,39.099098205566406 183.0504150390625,37.09867858886719 C184.60952758789062,35.09825897216797 185.38906860351562,32.617218017578125 185.38906860351562,29.668548583984375 C185.38906860351562,26.784835815429688 184.64849853515625,24.368743896484375 183.15435791015625,22.407291412353516 C181.6732177734375,20.445842742919922 179.6334228515625,19.211814880371094 177.04791259765625,18.731197357177734 C176.4892578125,18.614288330078125 175.82662963867188,18.510372161865234 175.0860595703125,18.41944122314453 C174.34548950195312,18.328514099121094 173.57894897460938,18.276554107666016 172.79937744140625,18.276554107666016 C172.61749267578125,18.237586975097656 172.422607421875,18.224597930908203 172.2147216796875,18.224597930908203 C172.00686645507812,18.224597930908203 171.78598022460938,18.21160888671875 171.57809448242188,18.172637939453125 L171.57809448242188,18.172637939453125ZM169.26547241210938,51.80305480957031 C169.10955810546875,51.54325866699219 169.03158569335938,51.062644958496094 169.03158569335938,50.34820556640625 L169.03158569335938,18.185626983642578 L157.4423370361328,18.185626983642578 L156.7537384033203,18.237586975097656 C156.1171112060547,18.237586975097656 155.6363983154297,18.3544921875 155.298583984375,18.601299285888672 C154.96078491210938,18.835113525390625 154.79188537597656,19.224803924560547 154.79188537597656,19.744396209716797 C154.79188537597656,20.08212661743164 154.86984252929688,20.367900848388672 155.05172729492188,20.614707946777344 C155.22064208984375,20.86151123046875 155.4934844970703,21.030380249023438 155.84426879882812,21.14728546142578 C155.9871826171875,21.186256408691406 156.1171112060547,21.23821258544922 156.24703979492188,21.290172576904297 C156.37696838378906,21.355121612548828 156.493896484375,21.394092559814453 156.59783935546875,21.433059692382812 C156.98760986328125,21.614917755126953 157.22146606445312,21.82275390625 157.3124237060547,22.0435791015625 C157.4033660888672,22.264404296875 157.4423370361328,22.64110565185547 157.4423370361328,23.16069793701172 L157.4423370361328,50.608001708984375 C157.4423370361328,51.17955017089844 157.4033660888672,51.569244384765625 157.3124237060547,51.790069580078125 C157.22146606445312,52.010894775390625 156.98760986328125,52.21873474121094 156.59783935546875,52.40058898925781 C156.48089599609375,52.43955993652344 156.37696838378906,52.49151611328125 156.24703979492188,52.54347229003906 C156.1171112060547,52.608421325683594 155.9871826171875,52.64739227294922 155.84426879882812,52.68635559082031 C155.4934844970703,52.80326843261719 155.23362731933594,52.972137451171875 155.05172729492188,53.21894073486328 C154.88282775878906,53.46574401855469 154.79188537597656,53.75151824951172 154.79188537597656,54.08924865722656 C154.79188537597656,54.56986999511719 154.9477996826172,54.93358612060547 155.27259826660156,55.180389404296875 C155.597412109375,55.42719268798828 156.09112548828125,55.544097900390625 156.76673889160156,55.544097900390625 L169.94107055664062,55.544097900390625 C170.75958251953125,55.544097900390625 171.34423828125,55.42719268798828 171.69503784179688,55.180389404296875 C172.04583740234375,54.94657897949219 172.22772216796875,54.556884765625 172.22772216796875,54.03729248046875 C172.22772216796875,53.66059112548828 172.11080932617188,53.36183166503906 171.90292358398438,53.115020751953125 C171.68206787109375,52.86821746826172 171.38323974609375,52.71234130859375 170.99346923828125,52.6343994140625 C170.87652587890625,52.608421325683594 170.78558349609375,52.5694580078125 170.69464111328125,52.55645751953125 C170.61666870117188,52.54347229003906 170.51272583007812,52.517494201660156 170.40878295898438,52.47852325439453 C169.8111572265625,52.28367614746094 169.42135620117188,52.06285095214844 169.26547241210938,51.80305480957031 L169.26547241210938,51.80305480957031Z"/>
    <path id="path-5" opacity="1" fill-rule="evenodd" d="M190.56005859375,55.557090759277344 L191.2486572265625,55.557090759277344 L191.2486572265625,55.57008361816406 L202.79891967773438,55.57008361816406 L202.79891967773438,23.394508361816406 C202.79891967773438,22.758010864257812 202.8638916015625,22.30337142944336 203.00680541992188,22.0435791015625 C203.14971923828125,21.783782958984375 203.50051879882812,21.549968719482422 204.07220458984375,21.36811065673828 C204.18911743164062,21.36811065673828 204.29306030273438,21.355121612548828 204.39700317382812,21.31615447998047 C204.51394653320312,21.277183532714844 204.630859375,21.23821258544922 204.77377319335938,21.19924545288086 C205.16354370117188,21.08233642578125 205.47537231445312,20.913471221923828 205.68325805664062,20.666664123535156 C205.90411376953125,20.432849884033203 206.008056640625,20.121097564697266 206.008056640625,19.744396209716797 C206.008056640625,19.224803924560547 205.826171875,18.848102569580078 205.47537231445312,18.601299285888672 C205.12457275390625,18.3544921875 204.5399169921875,18.19861602783203 203.72140502929688,18.120677947998047 L191.23565673828125,18.120677947998047 L190.54705810546875,18.172637939453125 C189.91043090820312,18.172637939453125 189.42971801757812,18.28954315185547 189.0919189453125,18.53635025024414 C188.75411987304688,18.770164489746094 188.585205078125,19.159854888916016 188.585205078125,19.679447174072266 C188.585205078125,20.030170440673828 188.66314697265625,20.341922760009766 188.84506225585938,20.588726043701172 C189.01394653320312,20.848522186279297 189.28680419921875,21.030380249023438 189.63760375976562,21.14728546142578 C189.780517578125,21.186256408691406 189.91043090820312,21.23821258544922 190.04034423828125,21.290172576904297 C190.1702880859375,21.355121612548828 190.28720092773438,21.394092559814453 190.39114379882812,21.433059692382812 C190.78091430664062,21.614917755126953 191.01480102539062,21.82275390625 191.10574340820312,22.0435791015625 C191.19668579101562,22.264404296875 191.23565673828125,22.64110565185547 191.23565673828125,23.16069793701172 L191.23565673828125,50.62098693847656 C191.23565673828125,51.192535400390625 191.19668579101562,51.58222961425781 191.10574340820312,51.80305480957031 C191.01480102539062,52.02388000488281 190.78091430664062,52.231719970703125 190.39114379882812,52.41357421875 C190.27423095703125,52.452545166015625 190.1702880859375,52.50450134277344 190.04034423828125,52.55645751953125 C189.91043090820312,52.62141418457031 189.780517578125,52.66038513183594 189.63760375976562,52.69934844970703 C189.28680419921875,52.816253662109375 189.02694702148438,52.98512268066406 188.84506225585938,53.23193359375 C188.6761474609375,53.478729248046875 188.585205078125,53.76451110839844 188.585205078125,54.10224151611328 C188.585205078125,54.582862854003906 188.74111938476562,54.94657897949219 189.06591796875,55.19337463378906 C189.3907470703125,55.440185546875 189.88446044921875,55.557090759277344 190.56005859375,55.557090759277344 L190.56005859375,55.557090759277344ZM206.34585571289062,52.166770935058594 C205.95608520507812,52.296661376953125 205.42340087890625,52.40058135986328 204.747802734375,52.47852325439453 L204.73480224609375,52.47852325439453 L204.73480224609375,55.57007598876953 L214.72598266601562,55.57007598876953 L214.72598266601562,44.46385192871094 C214.72598266601562,43.827362060546875 214.64804077148438,43.372718811035156 214.46612548828125,43.086944580078125 C214.28424072265625,42.81415557861328 213.95944213867188,42.67127227783203 213.50469970703125,42.67127227783203 C213.19287109375,42.67127227783203 212.93304443359375,42.73622131347656 212.73812866210938,42.866119384765625 C212.54324340820312,43.009002685546875 212.36135864257812,43.268798828125 212.17947387695312,43.684471130371094 C212.114501953125,43.827362060546875 212.03656005859375,44.02220153808594 211.97158813476562,44.269012451171875 C211.9066162109375,44.51581573486328 211.815673828125,44.788597106933594 211.71173095703125,45.087364196777344 C211.28298950195312,46.58118438720703 210.72430419921875,47.89314270019531 210.00973510742188,49.03623962402344 C209.29513549804688,50.166351318359375 208.50259399414062,51.02367401123047 207.61911010742188,51.58222961425781 C207.58013916015625,51.58222961425781 207.55416870117188,51.59522247314453 207.54116821289062,51.60820770263672 L207.46322631835938,51.68614959716797 C207.1124267578125,51.88099670410156 206.73562622070312,52.03687286376953 206.34585571289062,52.166770935058594 L206.34585571289062,52.166770935058594Z"/>
    <path id="path-6" opacity="1" fill-rule="evenodd" d="M232.642578125,17.43222427368164 L232.642578125,20.458831787109375 C233.52606201171875,20.75759506225586 234.14968872070312,21.186256408691406 234.50048828125,21.770793914794922 C234.85128784179688,22.355331420898438 235.03317260742188,23.16069793701172 235.03317260742188,24.212867736816406 L235.03317260742188,48.763458251953125 C235.03317260742188,50.15336608886719 234.85128784179688,51.192543029785156 234.50048828125,51.906982421875 C234.14968872070312,52.62141418457031 233.52606201171875,53.0760498046875 232.642578125,53.257911682128906 L232.642578125,56.284515380859375 C237.17694091796875,55.90782165527344 240.76284790039062,53.97235107421875 243.40032958984375,50.47810363769531 C246.03778076171875,46.98387145996094 247.36300659179688,42.47643280029297 247.36300659179688,36.94280242919922 C247.36300659179688,31.383201599121094 246.01177978515625,26.797821044921875 243.32235717773438,23.21265411376953 C240.6329345703125,19.614498138427734 237.072998046875,17.692020416259766 232.642578125,17.43222427368164 L232.642578125,17.43222427368164ZM228.1212158203125,24.277816772460938 C228.1212158203125,23.199668884277344 228.3031005859375,22.368324279785156 228.65390014648438,21.783782958984375 C229.01766967773438,21.19924545288086 229.62832641601562,20.744606018066406 230.51181030273438,20.41986083984375 L230.51181030273438,17.510162353515625 C226.120361328125,17.730987548828125 222.57342529296875,19.640480041503906 219.85800170898438,23.22564697265625 C217.14260864257812,26.810813903808594 215.7913818359375,31.383193969726562 215.7913818359375,36.95579528808594 C215.7913818359375,42.489418029785156 217.11660766601562,46.996856689453125 219.78005981445312,50.49109649658203 C222.43051147460938,53.98533630371094 226.01641845703125,55.920806884765625 230.51181030273438,56.297508239746094 L230.51181030273438,53.32286071777344 C229.62832641601562,53.050079345703125 229.00469970703125,52.608428955078125 228.65390014648438,51.971923828125 C228.3031005859375,51.33543395996094 228.1212158203125,50.25727844238281 228.1212158203125,48.72449493408203 L228.1212158203125,24.277816772460938 L228.1212158203125,24.277816772460938Z"/>
    <path id="path-7" opacity="1" fill-rule="evenodd" d="M270.0088195800781,50.34820556640625 C270.0088195800781,51.062644958496094 270.0867614746094,51.54325866699219 270.24267578125,51.80305480957031 C270.3985900878906,52.06285095214844 270.7883605957031,52.28367614746094 271.3860168457031,52.47853088378906 C271.4899597167969,52.517494201660156 271.5939025878906,52.54347229003906 271.6718444824219,52.55646514892578 C271.7627868652344,52.5694580078125 271.8537292480469,52.608421325683594 271.9576721191406,52.6343994140625 C272.3474426269531,52.71234130859375 272.6592712402344,52.86821746826172 272.89312744140625,53.115020751953125 C273.1269836425781,53.36183166503906 273.2439270019531,53.66059112548828 273.2439270019531,54.03729248046875 C273.2439270019531,54.556884765625 273.0620422363281,54.94657897949219 272.68524169921875,55.180389404296875 C272.3084716796875,55.42720031738281 271.72381591796875,55.544097900390625 270.9053039550781,55.544097900390625 L257.5101013183594,55.544097900390625 C256.73052978515625,55.544097900390625 256.15887451171875,55.42720031738281 255.7821044921875,55.180389404296875 C255.40530395507812,54.93358612060547 255.22341918945312,54.556884765625 255.22341918945312,54.03729248046875 C255.22341918945312,53.66059112548828 255.32736206054688,53.36183166503906 255.5482177734375,53.115020751953125 C255.756103515625,52.86821746826172 256.06793212890625,52.71234130859375 256.45770263671875,52.6343994140625 C256.6006164550781,52.595428466796875 256.7175598144531,52.5694580078125 256.83447265625,52.55646514892578 C256.93841552734375,52.54347229003906 257.02935791015625,52.50450134277344 257.0943298339844,52.47853088378906 C257.6919860839844,52.296669006347656 258.0687561035156,52.06285095214844 258.211669921875,51.80305480957031 C258.3545837402344,51.54325866699219 258.4195556640625,51.07563781738281 258.4195556640625,50.400169372558594 L258.4195556640625,18.172637939453125 L270.0088195800781,18.172637939453125 L270.0088195800781,50.34820556640625 L270.0088195800781,50.34820556640625ZM278.505859375,30.785667419433594 C278.7917175292969,30.44793701171875 278.93463134765625,29.99329376220703 278.93463134765625,29.434738159179688 L278.93463134765625,18.172637939453125 L272.1265869140625,18.172637939453125 L272.1265869140625,21.53697967529297 C273.01007080078125,22.056568145751953 273.7376403808594,22.848941802978516 274.2833251953125,23.914100646972656 C274.8290100097656,24.97925567626953 275.2317810058594,26.278228759765625 275.4786376953125,27.811019897460938 L275.7384948730469,29.55164337158203 C275.8424377441406,30.07123565673828 276.0373229980469,30.499893188476562 276.3231506347656,30.8116455078125 C276.6089782714844,31.136390686035156 276.95977783203125,31.292266845703125 277.3885192871094,31.292266845703125 C277.85626220703125,31.292266845703125 278.22003173828125,31.12340545654297 278.505859375,30.785667419433594 L278.505859375,30.785667419433594ZM256.3017883300781,18.185626983642578 L256.3017883300781,21.53697967529297 C255.41830444335938,22.095539093017578 254.70370483398438,22.913890838623047 254.14505004882812,23.979049682617188 C253.599365234375,25.044204711914062 253.18359375,26.356170654296875 252.89776611328125,27.92792510986328 L252.63790893554688,29.55164337158203 C252.57293701171875,30.149169921875 252.39105224609375,30.60381317138672 252.105224609375,30.90258026123047 C251.81939697265625,31.201339721679688 251.46859741210938,31.357215881347656 251.03985595703125,31.357215881347656 C250.58511352539062,31.357215881347656 250.20831298828125,31.1883544921875 249.9224853515625,30.850616455078125 C249.63665771484375,30.51288604736328 249.49374389648438,30.08422088623047 249.49374389648438,29.56463623046875 L249.49374389648438,18.185626983642578 L256.3017883300781,18.185626983642578 L256.3017883300781,18.185626983642578Z"/>
    <path id="path-8" opacity="1" fill-rule="evenodd" d="M149.33506565820613,59.06432013408763 L142.0463087559742,37.70919756966272 L161.10621316876248,23.290592918499918 L137.12217530509028,23.290592918499918 L129.17080413901908,0 L121.27140271913137,23.290592918499918 L96.88459932253724,23.290592918499918 L116.24332977588047,38.111879321181675 L109.22741404111179,59.09029960192756 L0,59.09029960192756 L0,61.987010266080084 L108.2529813001717,61.987010266080084 L108.26597373671757,61.987010266080084 L108.2529813001717,62.00000000000006 L128.80701591573478,47.71129268803691 L150.33548327223798,62.00000000000006 L150.33548327223798,61.987010266080084 L150.34847570878384,62.00000000000006 L150.45241520115076,62.00000000000006 L150.32249083569207,62.00000000000006 L280,62.00000000000006 L280,59.06432013408763 L149.33506565820613,59.06432013408763Z"/>
  </defs>
  <g opacity="1">
    <g opacity="1">
      <g opacity="1">
        <use xlink:href="#path-1" fill="rgb(255,255,255)" fill-opacity="1"/>
      </g>
      <g opacity="1">
        <use xlink:href="#path-2" fill="rgb(255,255,255)" fill-opacity="1"/>
      </g>
      <g opacity="1">
        <use xlink:href="#path-3" fill="rgb(255,255,255)" fill-opacity="1"/>
      </g>
    </g>
    <g opacity="1">
      <g opacity="1">
        <use xlink:href="#path-4" fill="rgb(255,255,255)" fill-opacity="1"/>
      </g>
      <g opacity="1">
        <use xlink:href="#path-5" fill="rgb(255,255,255)" fill-opacity="1"/>
      </g>
      <g opacity="1">
        <use xlink:href="#path-6" fill="rgb(255,255,255)" fill-opacity="1"/>
      </g>
      <g opacity="1">
        <use xlink:href="#path-7" fill="rgb(255,255,255)" fill-opacity="1"/>
      </g>
    </g>
    <g opacity="1">
      <use xlink:href="#path-8" fill="rgb(226,0,0)" fill-opacity="1"/>
    </g>
  </g>
</svg>